<svg width="22" height="22" viewBox="0 0 22 22" fill="none" xmlns="http://www.w3.org/2000/svg">
<g id="Iconly/Curved/Hide">
<g id="Hide">
<path id="Stroke 1" d="M5.88498 16.2524C3.84081 14.914 2.52081 12.8974 2.52081 11.1282C2.52081 8.12152 6.31581 4.43652 11 4.43652C12.9158 4.43652 14.6941 5.05069 16.1241 6.00402" stroke="white" stroke-width="1.5" stroke-linecap="round" stroke-linejoin="round"/>
<path id="Stroke 3" d="M18.1955 7.89258C19.0123 8.92841 19.488 10.0742 19.488 11.1284C19.488 14.1351 15.6839 17.8201 10.9997 17.8201C10.1655 17.8201 9.35062 17.7009 8.58887 17.4901" stroke="white" stroke-width="1.5" stroke-linecap="round" stroke-linejoin="round"/>
<path id="Stroke 5" d="M8.95188 13.1698C8.40646 12.6299 8.10121 11.8938 8.10396 11.1265C8.10029 9.52696 9.39463 8.22712 10.9951 8.22437C11.7651 8.22254 12.504 8.52779 13.0485 9.07229" stroke="white" stroke-width="1.5" stroke-linecap="round" stroke-linejoin="round"/>
<path id="Stroke 7" d="M13.8504 11.6409C13.6359 12.8252 12.7091 13.7538 11.5248 13.971" stroke="white" stroke-width="1.5" stroke-linecap="round" stroke-linejoin="round"/>
<path id="Stroke 9" d="M18.234 3.89575L3.77454 18.3553" stroke="white" stroke-width="1.5" stroke-linecap="round" stroke-linejoin="round"/>
</g>
</g>
</svg>
