<svg width="22" height="101" viewBox="0 0 22 101" fill="none" xmlns="http://www.w3.org/2000/svg">
<path d="M3.82577 85.3C4.05576 85.33 4.30576 85.35 4.56576 85.36C4.53576 87.62 4.61577 94.72 4.66576 98.03C4.66576 98.72 4.92576 99.37 5.40576 99.87C5.86576 100.36 6.50576 100.64 7.17576 100.64C7.80576 100.66 8.42576 100.42 8.88576 99.98C9.40576 99.48 9.70576 98.78 9.71576 98.06L9.78577 90.77C10.2058 91.03 10.6758 91.16 11.1658 91.16C12.1558 91.18 13.0658 90.62 13.4858 89.73C13.9458 90.04 14.4858 90.21 15.0358 90.21C15.5058 90.21 15.9658 90.1 16.3758 89.87L16.4158 94.29C16.4958 95.6 17.6258 96.59 18.9358 96.51C20.1158 96.44 21.0558 95.51 21.1558 94.34C21.1658 93.83 21.1958 93.13 21.2158 92.29C21.5858 81.97 21.4858 74.81 19.8658 73.42C18.5258 72.27 18.4758 70.14 18.5358 69.18L20.1258 69.18C20.4558 69.18 20.7258 68.91 20.7258 68.58L20.7258 1.60001C20.7258 1.27001 20.4558 1.00002 20.1258 1.00002C19.7958 1.00002 19.5258 1.27001 19.5258 1.60001L19.5258 67.98L4.99577 67.98L4.99577 1.60001C4.99577 1.27001 4.72577 1.00001 4.39577 1.00001C4.06577 1.00001 3.79577 1.27001 3.79577 1.60001L3.79577 68.58C3.79577 68.91 4.06577 69.18 4.39577 69.18L5.88577 69.18L5.88577 71.29C5.12577 72.17 4.27576 72.98 3.35576 73.69C2.26576 74.6 1.44576 75.79 0.975765 77.13C-0.144236 80.38 -0.064234 81.36 0.0857656 81.82C0.525766 83.63 1.99577 85 3.82577 85.31L3.82577 85.3ZM8.05576 99.11C7.83576 99.32 7.54577 99.44 7.23576 99.44L7.18576 99.44C6.83576 99.44 6.50576 99.29 6.26576 99.04C6.00576 98.77 5.86576 98.4 5.86576 98.02C5.80576 93.61 5.74576 87.17 5.76577 85.35C6.84577 85.31 7.94577 85.17 8.63577 85.08L8.51576 98.04C8.51576 98.44 8.34576 98.83 8.05576 99.11ZM11.1558 89.96C10.4658 90 9.88577 89.48 9.83576 88.79L9.83577 84.39C9.83577 83.91 10.0258 83.44 10.3358 83.08C10.5458 82.9 10.8158 82.81 11.0858 82.83C11.1458 82.84 12.6158 83.13 12.5458 84.45L12.5458 84.48L12.4858 88.82C12.4258 89.5 11.8358 90.01 11.1558 89.97L11.1558 89.96ZM15.0258 89C14.3058 89 13.7058 88.54 13.7058 88L13.7458 84.59L13.7458 84.49C13.7458 83.98 13.9158 83.49 14.2358 83.09C14.4358 82.91 14.6958 82.82 14.9658 82.84C15.0258 82.85 16.4958 83.1 16.4158 84.25L16.4158 84.28L16.3558 88.04C16.2358 88.66 15.6558 89.08 15.0358 89.01L15.0258 89ZM2.10576 77.52C2.49576 76.39 3.19576 75.39 4.11576 74.62C7.07577 72.15 7.07577 71.65 7.07577 71.41L7.07577 69.19L17.3258 69.19C17.2658 70.39 17.3658 72.87 19.0758 74.34C20.5958 75.64 20.1558 88.15 20.0158 92.26C19.9858 93.11 19.9658 93.82 19.9558 94.33C19.8558 94.97 19.2558 95.42 18.6058 95.32C18.0858 95.24 17.6758 94.83 17.6058 94.3L17.5458 88.06L17.6058 84.31C17.7058 82.55 16.0458 81.81 15.0858 81.65L14.9258 81.65C14.3658 81.64 13.8158 81.84 13.3958 82.23C13.2658 82.36 13.1558 82.49 13.0558 82.65C12.5558 82.14 11.9158 81.79 11.2158 81.66C11.1658 81.66 11.1058 81.66 11.0558 81.66C10.7158 80.88 9.90577 80.4 9.05577 80.47C8.51577 80.46 7.98577 80.39 7.45577 80.29C7.85577 80.04 8.19577 79.71 8.47577 79.32C8.65577 79.04 8.58577 78.67 8.30577 78.49C8.02577 78.31 7.65577 78.38 7.47577 78.65C6.93577 79.25 6.24577 79.69 5.46577 79.91C5.14577 80.01 4.96576 80.34 5.06577 80.66C5.12576 80.85 5.28577 81.01 5.47577 81.06C6.64577 81.39 7.84577 81.59 9.05577 81.66C9.35577 81.62 9.65577 81.73 9.85577 81.96C9.72577 82.04 9.60577 82.12 9.49577 82.22C9.05577 82.67 8.76577 83.25 8.67577 83.88C7.12577 84.14 5.54576 84.22 3.96576 84.13C2.59576 83.86 1.52576 82.81 1.20576 81.45C1.17576 81.34 1.03577 80.62 2.09577 77.54L2.10576 77.52Z" fill="black"/>
<path d="M8.9956 59.8068L14.4116 60.9668L14.4116 61.4068L8.9956 62.4148L8.9956 63.0948L14.9956 61.9268L14.9956 60.4548L9.57161 59.2948L9.57161 58.8548L14.9956 57.6948L14.9956 56.2308L8.9956 55.0468L8.9956 55.7348L14.4116 56.7428L14.4116 57.1828L8.9956 58.3348L8.9956 59.8068ZM12.3956 53.579C11.7716 53.579 11.3316 53.139 11.3316 52.523C11.3316 51.899 11.7716 51.475 12.3956 51.475L14.9956 51.475L14.9956 50.835L12.3316 50.835C11.4436 50.835 10.7636 51.363 10.7636 52.379C10.7636 52.875 10.9716 53.323 11.3316 53.547L11.3316 53.579L9.0036 53.579L9.0036 54.219L14.9956 54.219L14.9956 53.579L12.3956 53.579ZM14.9956 49.6175L14.9956 46.2414L10.8916 46.2415L10.8916 49.6175L14.9956 49.6175ZM14.4276 48.9775L11.4516 48.9775L11.4516 46.8815L14.4276 46.8815L14.4276 48.9775ZM16.8356 43.0423L16.8356 39.8103L14.4516 39.8103L14.4516 42.3463L13.7636 41.9383C13.8036 41.7783 13.8196 41.6103 13.8196 41.4263C13.8196 40.4023 13.2356 39.6503 12.2676 39.6503C11.7396 39.6503 11.3076 39.8903 11.0276 40.2823L10.0916 39.6903L9.7876 40.2263L10.7716 40.8343C10.7236 41.0183 10.6996 41.2183 10.6996 41.4263C10.6996 42.4583 11.3316 43.1943 12.2676 43.1943C12.8436 43.1943 13.2836 42.9303 13.5476 42.4983L14.4516 43.0423L16.8356 43.0423ZM11.2676 41.4263C11.2676 40.7783 11.6356 40.3063 12.2756 40.3063C12.9076 40.3063 13.2596 40.7943 13.2596 41.4263C13.2596 42.0423 12.8996 42.5463 12.2756 42.5463C11.6356 42.5463 11.2676 42.0583 11.2676 41.4263ZM16.2756 42.4183L15.0036 42.4183L15.0036 40.4423L16.2756 40.4423L16.2756 42.4183ZM14.9956 38.6956L14.9956 35.3196L10.8916 35.3196L10.8916 38.6956L14.9956 38.6956ZM14.4276 38.0556L11.4516 38.0556L11.4516 35.9596L14.4276 35.9596L14.4276 38.0556ZM12.3876 34.111L14.9956 34.111L14.9956 33.471L12.3956 33.471C11.7716 33.471 11.3316 33.031 11.3316 32.415C11.3316 31.799 11.7716 31.359 12.3956 31.359L14.9956 31.359L14.9956 30.719L12.4036 30.719C11.4356 30.719 10.7636 31.423 10.7636 32.415C10.7636 33.407 11.4276 34.111 12.3876 34.111ZM12.3876 29.5641L14.9956 29.5641L14.9956 28.9241L12.3956 28.9241C11.7716 28.9241 11.3316 28.4841 11.3316 27.8681C11.3316 27.2521 11.7716 26.8121 12.3956 26.8121L14.9956 26.8121L14.9956 26.1721L12.4036 26.1721C11.4356 26.1721 10.7636 26.8761 10.7636 27.8681C10.7636 28.8601 11.4276 29.5641 12.3876 29.5641ZM14.9956 25.1052L14.9956 21.9052L12.5316 21.9052C11.4836 21.9052 10.7636 22.5532 10.7636 23.6652C10.7636 24.3612 11.0116 24.8412 11.3956 25.1692L11.8356 24.8092C11.5556 24.5932 11.3316 24.2252 11.3316 23.7372C11.3316 22.9932 11.8036 22.5372 12.5396 22.5372L12.6836 22.5372L12.6836 25.1052L14.9956 25.1052ZM14.4276 24.4732L13.2356 24.4732L13.2356 22.5372L14.4276 22.5372L14.4276 24.4732ZM10.8916 15.6813L10.8916 18.6253L14.9956 18.6253L14.9956 15.6733L14.4276 15.6733L14.4276 17.9853L11.4516 17.9853L11.4516 15.6813L10.8916 15.6813ZM14.9956 14.9177L14.9956 11.7177L12.5316 11.7177C11.4836 11.7177 10.7636 12.3657 10.7636 13.4777C10.7636 14.1737 11.0116 14.6537 11.3956 14.9817L11.8356 14.6217C11.5556 14.4057 11.3316 14.0377 11.3316 13.5497C11.3316 12.8057 11.8036 12.3497 12.5396 12.3497L12.6836 12.3497L12.6836 14.9177L14.9956 14.9177ZM14.4276 14.2857L13.2356 14.2857L13.2356 12.3497L14.4276 12.3497L14.4276 14.2857ZM15.0436 9.05226C15.0436 8.89226 15.0276 8.74826 14.9956 8.65226L14.4276 8.65226C14.4516 8.74026 14.4676 8.83626 14.4676 8.94826C14.4676 9.52426 14.1476 9.88426 13.5236 9.88426L8.9956 9.88426L8.9956 10.5243L13.5956 10.5243C14.5236 10.5243 15.0436 9.98026 15.0436 9.05226ZM15.0436 6.55226C15.0436 6.39226 15.0276 6.24826 14.9956 6.15226L14.4276 6.15226C14.4516 6.24026 14.4676 6.33626 14.4676 6.44826C14.4676 7.02426 14.1476 7.38426 13.5236 7.38426L8.9956 7.38426L8.9956 8.02426L13.5956 8.02426C14.5236 8.02426 15.0436 7.48026 15.0436 6.55226ZM13.1396 3.57726L13.1396 2.93726L12.1476 2.93726L12.1476 2.61726C12.1476 1.65726 11.5716 0.977263 10.5796 0.977263C9.5796 0.977263 8.9956 1.68126 8.9956 2.64126L8.9956 3.72126L9.5716 3.72126L9.5716 2.68126C9.5716 2.04926 9.9476 1.63326 10.5796 1.63326C11.2196 1.63326 11.5956 2.04926 11.5956 2.68126L11.5956 3.57726L13.1396 3.57726ZM15.0756 3.25726C15.0756 3.02526 14.8836 2.82526 14.6356 2.82526C14.3956 2.82526 14.2036 3.02526 14.2036 3.25726C14.2036 3.49726 14.3956 3.69726 14.6356 3.69726C14.8836 3.69726 15.0756 3.49726 15.0756 3.25726Z" fill="black"/>
</svg>
