<svg width="49" height="36" viewBox="0 0 49 36" fill="none" xmlns="http://www.w3.org/2000/svg">
<path d="M30.5178 12.225C30.2153 12.385 29.9921 12.66 29.8979 12.99L29.6103 13.96C29.516 14.405 29.6549 14.87 29.9723 15.19L42.1764 27.495L49 20.615L28.559 0L0 28.795L7.14594 36L15.2986 27.78C15.6506 27.41 15.7647 26.875 15.5911 26.395L15.2291 25.215C15.1299 24.915 14.9316 24.66 14.6688 24.49C14.2076 24.195 13.8257 23.785 13.5579 23.305C12.6009 21.63 13.1711 19.49 14.8324 18.525C16.4937 17.56 18.6161 18.135 19.5732 19.81C20.2427 20.98 20.1832 22.43 19.4244 23.545C19.0922 24.035 18.6459 24.425 18.1202 24.69C17.8177 24.85 17.5946 25.13 17.5053 25.46L17.2127 26.43C17.1284 26.825 17.2276 27.24 17.4855 27.55L25.1224 35.255L31.817 28.505L23.1983 19.82L27.6614 15.32C28.0234 14.96 28.1474 14.42 27.9837 13.935L27.6217 12.76C27.5275 12.455 27.3291 12.195 27.0613 12.03C26.6051 11.73 26.2233 11.325 25.9555 10.845C24.9984 9.17 25.5687 7.03 27.2299 6.065C28.8912 5.1 31.0137 5.675 31.9708 7.35C32.6402 8.52 32.5807 9.97 31.822 11.085C31.4897 11.575 31.0434 11.97 30.5178 12.235" fill="black"/>
</svg>
